{
  "accessors": [
    {
      "bufferView": 2,
      "componentType": 5126,
      "count": 17333,
      "max": [
        1.4174362421035767,
        2.140305995941162,
        -9.214758028974757e-05
      ],
      "min": [
        -1.4174362421035767,
        -0.40542319416999817,
        -3.049204111099243
      ],
      "type": "VEC3"
    },
    {
      "bufferView": 2,
      "byteOffset": 207996,
      "componentType": 5126,
      "count": 17333,
      "max": [
        0.9999895691871643,
        1.0,
        1.0
      ],
      "min": [
        -0.9999895691871643,
        -1.0,
        -1.0
      ],
      "type": "VEC3"
    },
    {
      "bufferView": 1,
      "componentType": 5126,
      "count": 17333,
      "max": [
        0.998046875,
        0.99755859375
      ],
      "min": [
        0.001617430942133069,
        0.00274658203125
      ],
      "type": "VEC2"
    },
    {
      "bufferView": 1,
      "byteOffset": 138664,
      "componentType": 5126,
      "count": 17333,
      "max": [
        0.998046875,
        0.99755859375
      ],
      "min": [
        0.001617430942133069,
        0.00274658203125
      ],
      "type": "VEC2"
    },
    {
      "bufferView": 1,
      "byteOffset": 277328,
      "componentType": 5126,
      "count": 17333,
      "max": [
        0.998046875,
        0.99755859375
      ],
      "min": [
        0.001617430942133069,
        0.00274658203125
      ],
      "type": "VEC2"
    },
    {
      "bufferView": 0,
      "componentType": 5125,
      "count": 85236,
      "type": "SCALAR"
    }
  ],
  "asset": {
    "extras": {
      "author": "Элона (https://sketchfab.com/Elona_7476)",
      "license": "CC-BY-4.0 (http://creativecommons.org/licenses/by/4.0/)",
      "source": "https://sketchfab.com/3d-models/lord-farquaad-cc1fa892ab1744faa1b0e442cb2688f6",
      "title": "Lord Farquaad"
    },
    "generator": "Sketchfab-16.15.0",
    "version": "2.0"
  },
  "bufferViews": [
    {
      "buffer": 0,
      "byteLength": 340944,
      "name": "floatBufferViews",
      "target": 34963
    },
    {
      "buffer": 0,
      "byteLength": 415992,
      "byteOffset": 340944,
      "byteStride": 8,
      "name": "floatBufferViews",
      "target": 34962
    },
    {
      "buffer": 0,
      "byteLength": 415992,
      "byteOffset": 756936,
      "byteStride": 12,
      "name": "floatBufferViews",
      "target": 34962
    }
  ],
  "buffers": [
    {
      "byteLength": 1172928,
      "uri": "scene.bin"
    }
  ],
  "extensionsRequired": [
    "KHR_materials_pbrSpecularGlossiness"
  ],
  "extensionsUsed": [
    "KHR_materials_pbrSpecularGlossiness"
  ],
  "images": [
    {
      "uri": "textures/material_diffuse.png"
    },
    {
      "uri": "textures/material_specularGlossiness.png"
    }
  ],
  "materials": [
    {
      "doubleSided": true,
      "extensions": {
        "KHR_materials_pbrSpecularGlossiness": {
          "diffuseFactor": [
            1.0,
            1.0,
            1.0,
            1.0
          ],
          "diffuseTexture": {
            "index": 0
          },
          "glossinessFactor": 1.0,
          "specularFactor": [
            1.0,
            1.0,
            1.0
          ],
          "specularGlossinessTexture": {
            "index": 1
          }
        }
      },
      "name": "material"
    }
  ],
  "meshes": [
    {
      "name": "Object_0",
      "primitives": [
        {
          "attributes": {
            "NORMAL": 1,
            "POSITION": 0,
            "TEXCOORD_0": 2,
            "TEXCOORD_1": 3,
            "TEXCOORD_2": 4
          },
          "indices": 5,
          "material": 0,
          "mode": 4
        }
      ]
    }
  ],
  "nodes": [
    {
      "children": [
        1
      ],
      "matrix": [
        1.0,
        0.0,
        0.0,
        0.0,
        0.0,
        2.220446049250313e-16,
        -1.0,
        0.0,
        0.0,
        1.0,
        2.220446049250313e-16,
        0.0,
        0.0,
        0.0,
        0.0,
        1.0
      ],
      "name": "Sketchfab_model"
    },
    {
      "children": [
        2
      ],
      "name": "root"
    },
    {
      "children": [
        3
      ],
      "matrix": [
        1.0,
        0.0,
        0.0,
        0.0,
        0.0,
        2.220446049250313e-16,
        1.0,
        0.0,
        0.0,
        -1.0,
        2.220446049250313e-16,
        0.0,
        0.0,
        0.0,
        0.0,
        1.0
      ],
      "name": "GLTF_SceneRootNode"
    },
    {
      "children": [
        4
      ],
      "name": "root_1"
    },
    {
      "children": [
        5
      ],
      "matrix": [
        -1.0179933309555054,
        -1.7554666127082e-10,
        5.36027653126081e-09,
        0.0,
        -5.360272168748531e-09,
        0.06660597981971704,
        -1.0158111863743047,
        0.0,
        -1.7554564110815905e-10,
        -1.015811662189717,
        -0.06660601101857778,
        0.0,
        0.21864575147628784,
        -0.24872352182865143,
        0.009490112774074078,
        1.0
      ],
      "name": "node_id5_3"
    },
    {
      "children": [
        6
      ],
      "name": "node_id6_0"
    },
    {
      "mesh": 0,
      "name": "Object_6"
    }
  ],
  "samplers": [
    {
      "magFilter": 9729,
      "minFilter": 9987,
      "wrapS": 10497,
      "wrapT": 10497
    }
  ],
  "scene": 0,
  "scenes": [
    {
      "name": "Sketchfab_Scene",
      "nodes": [
        0
      ]
    }
  ],
  "textures": [
    {
      "sampler": 0,
      "source": 0
    },
    {
      "sampler": 0,
      "source": 1
    }
  ]
}
